<?xml version="1.0" standalone="no"?>
<!DOCTYPE svg PUBLIC "-//W3C//DTD SVG 20010904//EN"
 "http://www.w3.org/TR/2001/REC-SVG-20010904/DTD/svg10.dtd">
<svg version="1.0" xmlns="http://www.w3.org/2000/svg"
 width="512.000000pt" height="512.000000pt" viewBox="0 0 512.000000 512.000000"
 preserveAspectRatio="xMidYMid meet">
<metadata>
Created by potrace 1.14, written by Peter Selinger 2001-2017
</metadata>
<g transform="translate(0.000000,512.000000) scale(0.100000,-0.100000)"
fill="#000000" stroke="none">
<path d="M2330 5109 c-862 -76 -1642 -602 -2041 -1374 -166 -321 -257 -647
-281 -1002 -19 -285 4 -533 77 -819 87 -340 264 -691 490 -969 99 -122 318
-334 440 -426 851 -639 1993 -692 2895 -134 217 135 473 361 635 560 165 203
330 493 420 739 117 318 171 703 147 1038 -46 651 -311 1225 -773 1673 -536
520 -1266 780 -2009 714z m590 -65 c234 -33 524 -121 721 -220 76 -38 99 -57
207 -169 67 -70 122 -133 122 -140 0 -10 -180 -371 -224 -452 -1 -1 -42 5 -91
12 -181 28 -487 39 -691 26 -104 -6 -209 -16 -234 -21 -44 -8 -46 -7 -84 32
-58 60 -183 150 -330 237 -131 78 -295 165 -329 175 -15 5 -17 12 -12 38 24
112 119 296 200 385 50 56 64 63 200 88 195 36 335 39 545 9z m-744 -25 c3 -6
-10 -27 -29 -47 -73 -76 -169 -258 -201 -384 l-13 -53 -51 -6 c-127 -16 -590
-311 -734 -468 -36 -39 -54 -51 -77 -51 -50 0 -463 -81 -545 -106 -17 -6 -18
-1 -14 54 4 56 9 67 64 139 83 110 291 321 409 416 277 223 605 389 950 478
152 39 228 48 241 28z m1790 -380 c127 -87 256 -194 354 -295 47 -48 69 -76
50 -61 -73 56 -267 183 -306 200 -22 10 -48 31 -57 46 -9 15 -46 60 -83 99
-36 40 -62 72 -57 72 5 0 49 -27 99 -61z m-354 -593 c170 -24 172 -25 270
-134 179 -199 353 -441 431 -601 58 -119 57 -155 -17 -376 -61 -185 -164 -405
-245 -525 -78 -117 -155 -198 -199 -209 -59 -16 -283 -30 -612 -37 l-305 -7
-54 59 c-63 69 -160 196 -293 384 -137 194 -339 491 -345 506 -11 29 305 677
402 824 30 46 55 89 55 96 0 14 31 22 142 34 117 13 647 4 770 -14z m-2537
-83 c-38 -90 -43 -182 -24 -398 19 -223 64 -396 120 -459 l28 -33 -35 -34
c-70 -67 -168 -238 -248 -432 -47 -112 -129 -354 -150 -443 l-17 -71 -61 -7
c-34 -3 -145 -6 -248 -6 l-188 0 -31 35 c-101 115 -180 400 -167 600 15 229
80 541 145 697 38 89 138 250 225 363 l66 83 127 31 c71 17 193 42 273 56 80
14 152 27 160 29 30 7 32 6 25 -11z m3844 -543 c67 -179 141 -520 141 -646 0
-32 -7 -19 -39 77 -36 105 -98 245 -123 276 -5 7 -11 81 -13 165 -2 84 -8 175
-13 201 -14 71 2 46 47 -73z m-132 -286 l72 -7 46 -88 c58 -111 119 -296 140
-421 36 -221 9 -480 -85 -798 -52 -175 -170 -401 -247 -471 -53 -49 -328 -95
-508 -86 -145 8 -145 8 -133 60 19 79 -7 439 -43 602 -21 96 -61 206 -86 235
l-25 30 55 61 c149 164 297 456 383 754 19 66 37 126 39 134 5 12 33 13 163 8
86 -4 190 -10 229 -13z m-2486 -181 c255 -377 467 -670 546 -754 l43 -46 -69
-149 c-174 -378 -300 -624 -375 -728 -34 -48 -35 -50 -20 -85 19 -46 59 -88
159 -165 135 -106 450 -306 528 -335 32 -12 33 -28 12 -111 -32 -124 -145
-348 -204 -404 -56 -54 -330 -108 -551 -110 -130 -1 -319 23 -362 45 -9 5 -70
25 -135 45 -140 42 -295 114 -408 188 -90 61 -228 198 -270 270 l-27 47 37
107 c21 59 63 167 93 241 l55 133 41 -6 c214 -31 479 -32 739 -1 107 12 265
41 275 50 1 1 0 9 -3 17 -5 13 -13 13 -63 2 -123 -30 -287 -45 -522 -51 -256
-6 -404 5 -447 32 -26 18 -169 182 -250 290 -189 252 -333 519 -333 621 0 38
52 214 111 377 55 152 188 419 244 489 43 55 106 105 150 120 11 3 221 6 466
7 l446 1 94 -137z m-2221 -643 c0 -26 88 -195 118 -225 28 -29 29 -33 35 -165
7 -135 33 -311 61 -405 20 -65 12 -70 -15 -9 -108 249 -171 462 -204 698 -18
122 -19 158 -5 136 5 -8 10 -22 10 -30z m4576 -1082 c-9 -63 -33 -108 -122
-219 -344 -431 -782 -723 -1300 -869 -101 -28 -114 -30 -178 -20 -111 17 -112
18 -60 96 79 118 161 314 179 424 5 34 7 36 38 32 25 -3 58 8 128 43 179 90
363 203 489 300 58 45 175 164 201 204 15 23 15 23 119 12 118 -13 258 -3 400
28 122 26 114 29 106 -31z m-3859 -389 c76 -51 183 -114 237 -140 86 -42 103
-55 123 -91 14 -23 49 -72 78 -108 47 -56 82 -89 180 -166 42 -33 -17 -4 -134
65 -138 82 -264 175 -396 291 -87 78 -244 240 -231 240 3 0 68 -41 143 -91z"/>
</g>
</svg>
